<svg width="18" height="22" viewBox="0 0 18 22" fill="none" xmlns="http://www.w3.org/2000/svg">
<path d="M12.3151 6.44562V7.46062L6.85506 13.8306C6.13506 13.0694 5.68506 11.9494 5.68506 10.7506V6.44562C5.68506 4.64312 6.73506 3.14687 8.16006 2.71812C8.30256 2.67437 8.43756 2.81437 8.43756 2.98062V4.32812C8.43756 4.68687 8.69256 4.98437 9.00006 4.98437C9.30756 4.98437 9.56256 4.68687 9.56256 4.32812V2.98062C9.56256 2.81437 9.69756 2.67437 9.84006 2.71812C11.2651 3.14687 12.3151 4.64312 12.3151 6.44562Z" fill="#B2C6E3"/>
<path d="M14.8574 9.41189V10.8031C14.8574 14.3644 12.5099 17.2956 9.52495 17.6019V19.4656C9.52495 19.8069 9.29245 20.0781 8.99995 20.0781C8.70745 20.0781 8.47495 19.8069 8.47495 19.4656V17.6019C7.65745 17.5144 6.88495 17.2344 6.19495 16.7881L6.96745 15.8869C7.58245 16.2194 8.27245 16.4119 8.99995 16.4119C11.6549 16.4119 13.8149 13.8919 13.8149 10.8031V9.41189C13.8149 9.07939 14.0474 8.80814 14.3399 8.80814C14.6249 8.80814 14.8574 9.07939 14.8574 9.41189Z" fill="#B2C6E3"/>
<path d="M12.3151 9.64813V10.9169C12.3151 13.1744 10.6501 14.9856 8.67005 14.7669C8.46005 14.7406 8.25005 14.6969 8.05505 14.6181L12.3151 9.64813Z" fill="#B2C6E3"/>
<path d="M16.3275 2.77936C16.1025 2.51686 15.735 2.51686 15.51 2.77936L5.42247 14.5481C4.64997 13.5594 4.18497 12.2469 4.18497 10.8031V9.41186C4.18497 9.07936 3.95247 8.80811 3.65997 8.80811C3.37497 8.80811 3.14247 9.07936 3.14247 9.41186V10.8031C3.14247 12.5794 3.72747 14.1981 4.67997 15.4144L1.66497 18.9319C1.43997 19.1944 1.43997 19.6231 1.66497 19.8856C1.78497 20.0081 1.92747 20.0781 2.07747 20.0781C2.22747 20.0781 2.36997 20.0081 2.48247 19.8769L16.3275 3.72436C16.56 3.46186 16.56 3.04186 16.3275 2.77936Z" fill="#B2C6E3"/>
</svg>
